<svg width="17" height="17" viewBox="0 0 17 17" fill="none" xmlns="http://www.w3.org/2000/svg">
<path d="M12.833 10.3C12.8629 10.3 12.9037 10.3112 12.9463 10.3538L14.9336 12.3411V12.6252L12.9463 14.6125C12.9037 14.6551 12.8629 14.6663 12.833 14.6663C12.8107 14.6662 12.7606 14.6592 12.6758 14.5979C12.6438 14.5606 12.6339 14.5269 12.6338 14.5002C12.6338 14.4704 12.6442 14.4294 12.6865 14.387L14.4072 12.6663H11.2998C10.4443 12.6662 9.65481 12.2866 9.1084 11.6174L9.32031 11.2952C9.79396 11.9454 10.536 12.3 11.333 12.3H14.4404L13.5869 11.4465L12.7207 10.5793C12.6784 10.537 12.6671 10.4969 12.667 10.467C12.667 10.4372 12.6781 10.3963 12.7207 10.3538C12.7631 10.3114 12.8032 10.3001 12.833 10.3ZM12.833 2.33325C12.8629 2.33325 12.9037 2.34441 12.9463 2.38696L14.9463 4.38696L14.9668 4.40649V4.44067L15 4.47388V4.50708L15.0186 4.52563C15.0146 4.53426 15.0096 4.54265 15.0059 4.552L14.9463 4.61255L12.9463 6.61255C12.9037 6.65511 12.8629 6.66626 12.833 6.66626C12.8107 6.6662 12.7606 6.65918 12.6758 6.5979C12.6438 6.56056 12.6339 6.52686 12.6338 6.50024C12.6338 6.47042 12.6442 6.42943 12.6865 6.38696L14.4072 4.66626H11.2998C10.4676 4.66633 9.63581 5.11678 9.20703 5.83911L5.77637 11.3333C5.22861 12.1642 4.34981 12.6663 3.36621 12.6663H2.16699C2.07658 12.6663 2.00018 12.5906 2 12.5002C2 12.4097 2.07647 12.3333 2.16699 12.3333H3.36621C4.22847 12.3333 5.02701 11.9187 5.49023 11.1633L5.49121 11.1643L8.91797 5.67407C9.46531 4.83865 10.3465 4.33336 11.333 4.33325H14.4404L13.5869 3.47974L12.7207 2.61255C12.6783 2.57015 12.6671 2.5301 12.667 2.50024C12.667 2.47036 12.6781 2.42952 12.7207 2.38696C12.763 2.34469 12.8032 2.33333 12.833 2.33325ZM2.16699 4.30005H3.36621C4.22369 4.30005 5.01494 4.68182 5.56152 5.35376L5.37012 5.65845C4.89601 5.01643 4.15804 4.66626 3.36621 4.66626H2.16699C2.09239 4.66626 2.0002 4.60669 2 4.46704C2 4.37652 2.07647 4.30005 2.16699 4.30005ZM14.9375 4.22388C14.9365 4.21553 14.9351 4.20753 14.9346 4.20044C14.9341 4.19428 14.9338 4.18842 14.9336 4.18286C14.9335 4.18003 14.9336 4.17678 14.9336 4.17407L14.9375 4.22388Z" fill="#FCFCFC" stroke="#FCFCFC"/>
</svg>
